<svg height="512" viewBox="0 0 64 64" width="512" xmlns="http://www.w3.org/2000/svg"><g id="Online_banking-2" data-name="Online banking"><g fill="#9bc9ff"><path d="m39 54h19v-34a2 2 0 0 0 -2-2h-14v4h12v28h-44v-28h12v-4h-14a2 2 0 0 0 -2 2v34z"/><path d="m30 15h15l-13-12-13 12zm2-7a2 2 0 1 1 -2 2 2 2 0 0 1 2-2z"/><path d="m22 25h4v-10h-4v3 4z"/><path d="m30 15h4v10h-4z"/><path d="m38 25h4v-3-4-3h-4z"/><path d="m19 29h26v-4h-3-4-4-4-4-4-3z"/><circle cx="32" cy="44" r="2"/><circle cx="40" cy="44" r="2"/><path d="m46 44a2.006 2.006 0 1 0 1.2-1.831 2 2 0 0 0 -1.2 1.831z"/><circle cx="24" cy="44" r="2"/><path d="m14 44a2 2 0 1 0 2.8-1.831 2 2 0 0 0 -2.8 1.831z"/><path d="m39 54v1a2 2 0 0 1 -2 2h-10a2 2 0 0 1 -2-2v-1h-22v3a4 4 0 0 0 4 4h50a4 4 0 0 0 4-4v-3z"/><path d="m17 29v4h4.12 5.8 5.08 5.08 5.8 4.12v-4h-2-26z"/></g><path d="m32 13a3 3 0 1 0 -3-3 3 3 0 0 0 3 3zm0-4a1 1 0 1 1 -1 1 1 1 0 0 1 1-1z" fill="#1e81ce"/><path d="m61 53h-2v-33a3 3 0 0 0 -3-3h-13v-1h2a1 1 0 0 0 .679-1.735l-13-12a1 1 0 0 0 -1.358 0l-13 12a1 1 0 0 0 .679 1.735h2v1h-13a3 3 0 0 0 -3 3v33h-2a1 1 0 0 0 -1 1v3a5.006 5.006 0 0 0 5 5h50a5.006 5.006 0 0 0 5-5v-3a1 1 0 0 0 -1-1zm-32-37v8h-2v-8zm8 0v8h-2v-8zm-4 8h-2v-8h2zm11 2v2h-24v-2zm-26 6v-2h28v2zm14 11a1 1 0 1 1 -1 1 1 1 0 0 1 1-1zm-11-19h-2a1 1 0 0 0 -1 1v3h-1a1 1 0 0 0 -1 1v4a1 1 0 0 0 1 1h2.544l-3.309 7.024c-.079-.006-.155-.024-.235-.024a3.018 3.018 0 1 0 2.064.833l3.69-7.833h3.861l-1.892 7.028a2.978 2.978 0 1 0 1.942.479l2.021-7.507h3.314v7.184a3 3 0 1 0 2 0v-7.184h3.314l2.021 7.507a3.013 3.013 0 1 0 1.942-.479l-1.892-7.028h3.861l3.69 7.833a2.992 2.992 0 1 0 2.064-.833c-.08 0-.156.018-.235.024l-3.309-7.024h2.544a1 1 0 0 0 1-1v-4a1 1 0 0 0 -1-1h-1v-3a1 1 0 0 0 -1-1h-2v-1h10v26h-42v-26h10zm-5 19a1 1 0 1 1 -1 1 1 1 0 0 1 1-1zm8 0a1 1 0 1 1 -1 1 1 1 0 0 1 1-1zm16 0a1 1 0 1 1 -1 1 1 1 0 0 1 1-1zm8 0a1 1 0 1 1 -1 1 1 1 0 0 1 1-1zm-7-19h-2v-8h2zm-9-19.639 10.442 9.639h-20.884zm-7 11.639v8h-2v-8zm-18 4a1 1 0 0 1 1-1h13v2h-11a1 1 0 0 0 -1 1v28a1 1 0 0 0 1 1h44a1 1 0 0 0 1-1v-28a1 1 0 0 0 -1-1h-11v-2h13a1 1 0 0 1 1 1v33h-50zm31 35a1 1 0 0 1 -1 1h-10a1 1 0 0 1 -1-1zm22 2a3 3 0 0 1 -3 3h-50a3 3 0 0 1 -3-3v-2h20a3 3 0 0 0 3 3h10a3 3 0 0 0 3-3h20z" fill="#1e81ce"/></g></svg>